# xmcd
#
# Track frame offsets:
#	150
#	18648
#	34836
#	57896
#	70946
#	95030
#	110334
#	131500
#	151192
#	162049
#	180302
#	196796
#	212648
#	227735
#	235390
#	250432
#
# Disc length: 3623 seconds
#
# Revision: 1
# Processed by: cddbd v1.5.1PL2 Copyright (c) Steve Scherf et al.
# Submitted via: audiograbber 1.83.01
#
DISCID=d30e2510
DTITLE=Paddy Milner - You Think Your're so Damn Funny
DYEAR=2006
DGENRE=
TTITLE0=You Think You're So Damn Funny
TTITLE1=Walking On Eggshells
TTITLE2=After The Rain
TTITLE3=Unsqare Dance
TTITLE4=Run For Cover
TTITLE5=Dreamtime
TTITLE6=Rollin' and Tumblin'
TTITLE7=Can't Escape The Song
TTITLE8=Lazy Monday
TTITLE9=Falling For The Moon
TTITLE10=I Live The Life I Love
TTITLE11=Beware Of The Groove
TTITLE12=Back to The Real World
TTITLE13=Prelude To Caravan
TTITLE14=Caravan
TTITLE15=The Awakening
EXTD=
EXTT0=
EXTT1=
EXTT2=
EXTT3=
EXTT4=
EXTT5=
EXTT6=
EXTT7=
EXTT8=
EXTT9=
EXTT10=
EXTT11=
EXTT12=
EXTT13=
EXTT14=
EXTT15=
PLAYORDER=
